<mxfile host="app.diagrams.net" modified="2021-10-16T05:31:50.112Z" agent="5.0 (Windows NT 10.0; Win64; x64) AppleWebKit/537.36 (KHTML, like Gecko) Chrome/94.0.4606.81 Safari/537.36" etag="eActcG03ABimbFj1OS_n" version="15.5.4" type="github">
  <diagram id="C5RBs43oDa-KdzZeNtuy" name="Page-1">
    <mxGraphModel dx="1474" dy="899" grid="1" gridSize="10" guides="1" tooltips="1" connect="1" arrows="1" fold="1" page="1" pageScale="1" pageWidth="3300" pageHeight="4681" math="0" shadow="0">
      <root>
        <object label="" id="WIyWlLk6GJQsqaUBKTNV-0">
          <mxCell />
        </object>
        <mxCell id="WIyWlLk6GJQsqaUBKTNV-1" parent="WIyWlLk6GJQsqaUBKTNV-0" />
        <mxCell id="gV6yRQY4_TlXhHt6PnbV-25" style="edgeStyle=orthogonalEdgeStyle;curved=0;rounded=1;sketch=0;orthogonalLoop=1;jettySize=auto;html=1;exitX=0.5;exitY=1;exitDx=0;exitDy=0;entryX=0.5;entryY=0;entryDx=0;entryDy=0;" edge="1" parent="WIyWlLk6GJQsqaUBKTNV-1" source="WIyWlLk6GJQsqaUBKTNV-3" target="gV6yRQY4_TlXhHt6PnbV-24">
          <mxGeometry relative="1" as="geometry" />
        </mxCell>
        <mxCell id="WIyWlLk6GJQsqaUBKTNV-3" value="시작" style="rounded=1;whiteSpace=wrap;html=1;fontSize=12;glass=0;strokeWidth=1;shadow=0;fillColor=#f8cecc;strokeColor=#b85450;" parent="WIyWlLk6GJQsqaUBKTNV-1" vertex="1">
          <mxGeometry x="1330" y="190" width="120" height="40" as="geometry" />
        </mxCell>
        <mxCell id="gV6yRQY4_TlXhHt6PnbV-10" style="edgeStyle=orthogonalEdgeStyle;rounded=0;orthogonalLoop=1;jettySize=auto;html=1;exitX=1;exitY=0.5;exitDx=0;exitDy=0;entryX=0.5;entryY=1;entryDx=0;entryDy=0;" edge="1" parent="WIyWlLk6GJQsqaUBKTNV-1" source="WIyWlLk6GJQsqaUBKTNV-6" target="gV6yRQY4_TlXhHt6PnbV-6">
          <mxGeometry relative="1" as="geometry" />
        </mxCell>
        <mxCell id="gV6yRQY4_TlXhHt6PnbV-11" value="No" style="edgeStyle=orthogonalEdgeStyle;rounded=0;orthogonalLoop=1;jettySize=auto;html=1;exitX=1;exitY=0.5;exitDx=0;exitDy=0;entryX=0.5;entryY=1;entryDx=0;entryDy=0;" edge="1" parent="WIyWlLk6GJQsqaUBKTNV-1" source="WIyWlLk6GJQsqaUBKTNV-6" target="WIyWlLk6GJQsqaUBKTNV-7">
          <mxGeometry x="-0.92" y="10" relative="1" as="geometry">
            <mxPoint as="offset" />
          </mxGeometry>
        </mxCell>
        <mxCell id="gV6yRQY4_TlXhHt6PnbV-57" style="edgeStyle=orthogonalEdgeStyle;rounded=0;sketch=0;orthogonalLoop=1;jettySize=auto;html=1;exitX=0.5;exitY=1;exitDx=0;exitDy=0;entryX=0.5;entryY=0;entryDx=0;entryDy=0;" edge="1" parent="WIyWlLk6GJQsqaUBKTNV-1" source="WIyWlLk6GJQsqaUBKTNV-6" target="gV6yRQY4_TlXhHt6PnbV-32">
          <mxGeometry relative="1" as="geometry">
            <Array as="points">
              <mxPoint x="1390" y="610" />
              <mxPoint x="1000" y="610" />
            </Array>
          </mxGeometry>
        </mxCell>
        <mxCell id="gV6yRQY4_TlXhHt6PnbV-66" value="Yes" style="edgeStyle=orthogonalEdgeStyle;rounded=0;sketch=0;orthogonalLoop=1;jettySize=auto;html=1;exitX=0.5;exitY=1;exitDx=0;exitDy=0;entryX=0.5;entryY=0;entryDx=0;entryDy=0;" edge="1" parent="WIyWlLk6GJQsqaUBKTNV-1" source="WIyWlLk6GJQsqaUBKTNV-6" target="gV6yRQY4_TlXhHt6PnbV-20">
          <mxGeometry x="-1" y="-30" relative="1" as="geometry">
            <Array as="points">
              <mxPoint x="1390" y="610" />
              <mxPoint x="360" y="610" />
            </Array>
            <mxPoint as="offset" />
          </mxGeometry>
        </mxCell>
        <mxCell id="gV6yRQY4_TlXhHt6PnbV-68" style="edgeStyle=orthogonalEdgeStyle;rounded=0;sketch=0;orthogonalLoop=1;jettySize=auto;html=1;exitX=0.5;exitY=1;exitDx=0;exitDy=0;entryX=0.5;entryY=0;entryDx=0;entryDy=0;" edge="1" parent="WIyWlLk6GJQsqaUBKTNV-1" source="WIyWlLk6GJQsqaUBKTNV-6" target="gV6yRQY4_TlXhHt6PnbV-67">
          <mxGeometry relative="1" as="geometry">
            <Array as="points">
              <mxPoint x="1390" y="610" />
              <mxPoint x="850" y="610" />
              <mxPoint x="850" y="700" />
              <mxPoint x="650" y="700" />
            </Array>
          </mxGeometry>
        </mxCell>
        <mxCell id="gV6yRQY4_TlXhHt6PnbV-75" style="edgeStyle=orthogonalEdgeStyle;rounded=0;sketch=0;orthogonalLoop=1;jettySize=auto;html=1;exitX=0.5;exitY=1;exitDx=0;exitDy=0;entryX=0.5;entryY=0;entryDx=0;entryDy=0;" edge="1" parent="WIyWlLk6GJQsqaUBKTNV-1" source="WIyWlLk6GJQsqaUBKTNV-6" target="WIyWlLk6GJQsqaUBKTNV-10">
          <mxGeometry relative="1" as="geometry" />
        </mxCell>
        <mxCell id="WIyWlLk6GJQsqaUBKTNV-6" value="로그인" style="rhombus;whiteSpace=wrap;html=1;shadow=0;fontFamily=Helvetica;fontSize=12;align=center;strokeWidth=1;spacing=6;spacingTop=-4;fillColor=#ffe6cc;strokeColor=#d79b00;" parent="WIyWlLk6GJQsqaUBKTNV-1" vertex="1">
          <mxGeometry x="1340" y="490" width="100" height="80" as="geometry" />
        </mxCell>
        <mxCell id="gV6yRQY4_TlXhHt6PnbV-29" style="edgeStyle=orthogonalEdgeStyle;curved=0;rounded=1;sketch=0;orthogonalLoop=1;jettySize=auto;html=1;exitX=0.5;exitY=0;exitDx=0;exitDy=0;entryX=1;entryY=0.5;entryDx=0;entryDy=0;" edge="1" parent="WIyWlLk6GJQsqaUBKTNV-1" source="WIyWlLk6GJQsqaUBKTNV-7" target="gV6yRQY4_TlXhHt6PnbV-24">
          <mxGeometry relative="1" as="geometry">
            <mxPoint x="1660" y="300" as="targetPoint" />
          </mxGeometry>
        </mxCell>
        <mxCell id="WIyWlLk6GJQsqaUBKTNV-7" value="회원가입 페이지" style="rounded=1;whiteSpace=wrap;html=1;fontSize=12;glass=0;strokeWidth=1;shadow=0;arcSize=0;" parent="WIyWlLk6GJQsqaUBKTNV-1" vertex="1">
          <mxGeometry x="1610" y="470" width="120" height="40" as="geometry" />
        </mxCell>
        <mxCell id="gV6yRQY4_TlXhHt6PnbV-59" style="edgeStyle=orthogonalEdgeStyle;rounded=0;sketch=0;orthogonalLoop=1;jettySize=auto;html=1;exitX=0.5;exitY=1;exitDx=0;exitDy=0;entryX=0.445;entryY=-0.08;entryDx=0;entryDy=0;entryPerimeter=0;" edge="1" parent="WIyWlLk6GJQsqaUBKTNV-1" source="WIyWlLk6GJQsqaUBKTNV-10" target="gV6yRQY4_TlXhHt6PnbV-22">
          <mxGeometry relative="1" as="geometry">
            <Array as="points">
              <mxPoint x="1612" y="750" />
              <mxPoint x="1431" y="750" />
            </Array>
          </mxGeometry>
        </mxCell>
        <mxCell id="gV6yRQY4_TlXhHt6PnbV-60" value="Yes" style="edgeStyle=orthogonalEdgeStyle;rounded=0;sketch=0;orthogonalLoop=1;jettySize=auto;html=1;exitX=0.5;exitY=1;exitDx=0;exitDy=0;entryX=0.5;entryY=0;entryDx=0;entryDy=0;" edge="1" parent="WIyWlLk6GJQsqaUBKTNV-1" source="WIyWlLk6GJQsqaUBKTNV-10" target="gV6yRQY4_TlXhHt6PnbV-48">
          <mxGeometry x="-1" y="-20" relative="1" as="geometry">
            <Array as="points">
              <mxPoint x="1612" y="750" />
              <mxPoint x="1142" y="750" />
            </Array>
            <mxPoint as="offset" />
          </mxGeometry>
        </mxCell>
        <mxCell id="WIyWlLk6GJQsqaUBKTNV-10" value="관리자" style="rhombus;whiteSpace=wrap;html=1;shadow=0;fontFamily=Helvetica;fontSize=12;align=center;strokeWidth=1;spacing=6;spacingTop=-4;fillColor=#ffe6cc;strokeColor=#d79b00;" parent="WIyWlLk6GJQsqaUBKTNV-1" vertex="1">
          <mxGeometry x="1562" y="650" width="100" height="80" as="geometry" />
        </mxCell>
        <mxCell id="gV6yRQY4_TlXhHt6PnbV-27" style="edgeStyle=orthogonalEdgeStyle;curved=0;rounded=1;sketch=0;orthogonalLoop=1;jettySize=auto;html=1;exitX=0.5;exitY=1;exitDx=0;exitDy=0;entryX=0.5;entryY=0;entryDx=0;entryDy=0;" edge="1" parent="WIyWlLk6GJQsqaUBKTNV-1" source="gV6yRQY4_TlXhHt6PnbV-0" target="WIyWlLk6GJQsqaUBKTNV-6">
          <mxGeometry relative="1" as="geometry" />
        </mxCell>
        <mxCell id="gV6yRQY4_TlXhHt6PnbV-0" value="로그인 페이지" style="rounded=0;whiteSpace=wrap;html=1;fillColor=#d5e8d4;strokeColor=#82b366;" vertex="1" parent="WIyWlLk6GJQsqaUBKTNV-1">
          <mxGeometry x="1330" y="380" width="120" height="60" as="geometry" />
        </mxCell>
        <mxCell id="gV6yRQY4_TlXhHt6PnbV-28" style="edgeStyle=orthogonalEdgeStyle;curved=0;rounded=1;sketch=0;orthogonalLoop=1;jettySize=auto;html=1;exitX=0.5;exitY=0;exitDx=0;exitDy=0;entryX=1;entryY=0.5;entryDx=0;entryDy=0;" edge="1" parent="WIyWlLk6GJQsqaUBKTNV-1" source="gV6yRQY4_TlXhHt6PnbV-6" target="gV6yRQY4_TlXhHt6PnbV-24">
          <mxGeometry relative="1" as="geometry" />
        </mxCell>
        <mxCell id="gV6yRQY4_TlXhHt6PnbV-6" value="ID/PW 찾기" style="rounded=1;whiteSpace=wrap;html=1;fontSize=12;glass=0;strokeWidth=1;shadow=0;arcSize=0;" vertex="1" parent="WIyWlLk6GJQsqaUBKTNV-1">
          <mxGeometry x="1464" y="470" width="120" height="40" as="geometry" />
        </mxCell>
        <mxCell id="gV6yRQY4_TlXhHt6PnbV-21" style="edgeStyle=orthogonalEdgeStyle;rounded=0;orthogonalLoop=1;jettySize=auto;html=1;exitX=0.5;exitY=1;exitDx=0;exitDy=0;entryX=0.5;entryY=0;entryDx=0;entryDy=0;" edge="1" parent="WIyWlLk6GJQsqaUBKTNV-1" source="gV6yRQY4_TlXhHt6PnbV-17" target="gV6yRQY4_TlXhHt6PnbV-20">
          <mxGeometry relative="1" as="geometry">
            <Array as="points">
              <mxPoint x="720" y="610" />
              <mxPoint x="360" y="610" />
            </Array>
          </mxGeometry>
        </mxCell>
        <mxCell id="gV6yRQY4_TlXhHt6PnbV-38" style="edgeStyle=orthogonalEdgeStyle;rounded=0;sketch=0;orthogonalLoop=1;jettySize=auto;html=1;exitX=0.5;exitY=1;exitDx=0;exitDy=0;entryX=0.5;entryY=0;entryDx=0;entryDy=0;" edge="1" parent="WIyWlLk6GJQsqaUBKTNV-1" source="gV6yRQY4_TlXhHt6PnbV-17" target="gV6yRQY4_TlXhHt6PnbV-36">
          <mxGeometry relative="1" as="geometry">
            <Array as="points">
              <mxPoint x="720" y="610" />
              <mxPoint x="220" y="610" />
            </Array>
          </mxGeometry>
        </mxCell>
        <mxCell id="gV6yRQY4_TlXhHt6PnbV-17" value="물품 페이지" style="rounded=0;whiteSpace=wrap;html=1;fillColor=#d5e8d4;strokeColor=#82b366;" vertex="1" parent="WIyWlLk6GJQsqaUBKTNV-1">
          <mxGeometry x="660" y="350" width="120" height="50" as="geometry" />
        </mxCell>
        <mxCell id="gV6yRQY4_TlXhHt6PnbV-20" value="주문" style="rounded=0;whiteSpace=wrap;html=1;" vertex="1" parent="WIyWlLk6GJQsqaUBKTNV-1">
          <mxGeometry x="300" y="870" width="120" height="50" as="geometry" />
        </mxCell>
        <mxCell id="gV6yRQY4_TlXhHt6PnbV-45" style="edgeStyle=orthogonalEdgeStyle;rounded=0;sketch=0;orthogonalLoop=1;jettySize=auto;html=1;exitX=0.5;exitY=1;exitDx=0;exitDy=0;entryX=0.5;entryY=0;entryDx=0;entryDy=0;" edge="1" parent="WIyWlLk6GJQsqaUBKTNV-1" source="gV6yRQY4_TlXhHt6PnbV-22" target="gV6yRQY4_TlXhHt6PnbV-39">
          <mxGeometry relative="1" as="geometry" />
        </mxCell>
        <mxCell id="gV6yRQY4_TlXhHt6PnbV-46" style="edgeStyle=orthogonalEdgeStyle;rounded=0;sketch=0;orthogonalLoop=1;jettySize=auto;html=1;exitX=0.5;exitY=1;exitDx=0;exitDy=0;" edge="1" parent="WIyWlLk6GJQsqaUBKTNV-1" source="gV6yRQY4_TlXhHt6PnbV-22" target="gV6yRQY4_TlXhHt6PnbV-40">
          <mxGeometry relative="1" as="geometry" />
        </mxCell>
        <mxCell id="gV6yRQY4_TlXhHt6PnbV-47" style="edgeStyle=orthogonalEdgeStyle;rounded=0;sketch=0;orthogonalLoop=1;jettySize=auto;html=1;exitX=0.5;exitY=1;exitDx=0;exitDy=0;entryX=0.5;entryY=0;entryDx=0;entryDy=0;" edge="1" parent="WIyWlLk6GJQsqaUBKTNV-1" source="gV6yRQY4_TlXhHt6PnbV-22" target="gV6yRQY4_TlXhHt6PnbV-41">
          <mxGeometry relative="1" as="geometry" />
        </mxCell>
        <mxCell id="gV6yRQY4_TlXhHt6PnbV-22" value="관리자 페이지" style="rounded=0;whiteSpace=wrap;html=1;fillColor=#d5e8d4;strokeColor=#82b366;" vertex="1" parent="WIyWlLk6GJQsqaUBKTNV-1">
          <mxGeometry x="1382" y="790" width="110" height="50" as="geometry" />
        </mxCell>
        <mxCell id="gV6yRQY4_TlXhHt6PnbV-26" style="edgeStyle=orthogonalEdgeStyle;curved=0;rounded=1;sketch=0;orthogonalLoop=1;jettySize=auto;html=1;exitX=0.5;exitY=1;exitDx=0;exitDy=0;entryX=0.5;entryY=0;entryDx=0;entryDy=0;" edge="1" parent="WIyWlLk6GJQsqaUBKTNV-1" source="gV6yRQY4_TlXhHt6PnbV-24" target="gV6yRQY4_TlXhHt6PnbV-0">
          <mxGeometry relative="1" as="geometry" />
        </mxCell>
        <mxCell id="gV6yRQY4_TlXhHt6PnbV-30" style="edgeStyle=orthogonalEdgeStyle;curved=0;rounded=1;sketch=0;orthogonalLoop=1;jettySize=auto;html=1;exitX=0;exitY=0.5;exitDx=0;exitDy=0;" edge="1" parent="WIyWlLk6GJQsqaUBKTNV-1" source="gV6yRQY4_TlXhHt6PnbV-24" target="gV6yRQY4_TlXhHt6PnbV-17">
          <mxGeometry relative="1" as="geometry" />
        </mxCell>
        <mxCell id="gV6yRQY4_TlXhHt6PnbV-24" value="홈 화면" style="shape=hexagon;perimeter=hexagonPerimeter2;whiteSpace=wrap;html=1;fixedSize=1;rounded=0;sketch=0;size=20;fillColor=#d5e8d4;strokeColor=#82b366;" vertex="1" parent="WIyWlLk6GJQsqaUBKTNV-1">
          <mxGeometry x="1330" y="260" width="120" height="80" as="geometry" />
        </mxCell>
        <mxCell id="gV6yRQY4_TlXhHt6PnbV-64" style="edgeStyle=orthogonalEdgeStyle;rounded=0;sketch=0;orthogonalLoop=1;jettySize=auto;html=1;exitX=0;exitY=0.5;exitDx=0;exitDy=0;entryX=0.5;entryY=0;entryDx=0;entryDy=0;" edge="1" parent="WIyWlLk6GJQsqaUBKTNV-1" source="gV6yRQY4_TlXhHt6PnbV-32" target="gV6yRQY4_TlXhHt6PnbV-49">
          <mxGeometry relative="1" as="geometry">
            <mxPoint x="963" y="819.9999999999998" as="targetPoint" />
            <Array as="points">
              <mxPoint x="930" y="703" />
            </Array>
          </mxGeometry>
        </mxCell>
        <mxCell id="gV6yRQY4_TlXhHt6PnbV-65" style="edgeStyle=orthogonalEdgeStyle;rounded=0;sketch=0;orthogonalLoop=1;jettySize=auto;html=1;exitX=1;exitY=0.5;exitDx=0;exitDy=0;entryX=0.5;entryY=0;entryDx=0;entryDy=0;" edge="1" parent="WIyWlLk6GJQsqaUBKTNV-1" source="gV6yRQY4_TlXhHt6PnbV-32" target="gV6yRQY4_TlXhHt6PnbV-48">
          <mxGeometry relative="1" as="geometry" />
        </mxCell>
        <mxCell id="gV6yRQY4_TlXhHt6PnbV-32" value="게시판 페이지" style="rounded=0;whiteSpace=wrap;html=1;fillColor=#d5e8d4;strokeColor=#82b366;" vertex="1" parent="WIyWlLk6GJQsqaUBKTNV-1">
          <mxGeometry x="940" y="675" width="120" height="55" as="geometry" />
        </mxCell>
        <mxCell id="gV6yRQY4_TlXhHt6PnbV-36" value="물품 상세 정보" style="rounded=0;whiteSpace=wrap;html=1;sketch=0;" vertex="1" parent="WIyWlLk6GJQsqaUBKTNV-1">
          <mxGeometry x="160" y="870" width="120" height="50" as="geometry" />
        </mxCell>
        <mxCell id="gV6yRQY4_TlXhHt6PnbV-39" value="물품 추가" style="rounded=0;whiteSpace=wrap;html=1;" vertex="1" parent="WIyWlLk6GJQsqaUBKTNV-1">
          <mxGeometry x="1302" y="920" width="110" height="50" as="geometry" />
        </mxCell>
        <mxCell id="gV6yRQY4_TlXhHt6PnbV-40" value="물품 삭제" style="rounded=0;whiteSpace=wrap;html=1;" vertex="1" parent="WIyWlLk6GJQsqaUBKTNV-1">
          <mxGeometry x="1442" y="920" width="110" height="50" as="geometry" />
        </mxCell>
        <mxCell id="gV6yRQY4_TlXhHt6PnbV-41" value="재고 정보 수정" style="rounded=0;whiteSpace=wrap;html=1;" vertex="1" parent="WIyWlLk6GJQsqaUBKTNV-1">
          <mxGeometry x="1572" y="920" width="110" height="50" as="geometry" />
        </mxCell>
        <mxCell id="gV6yRQY4_TlXhHt6PnbV-48" value="공지사항 게시" style="rounded=0;whiteSpace=wrap;html=1;" vertex="1" parent="WIyWlLk6GJQsqaUBKTNV-1">
          <mxGeometry x="1082" y="880" width="120" height="50" as="geometry" />
        </mxCell>
        <mxCell id="gV6yRQY4_TlXhHt6PnbV-49" value="게시글 생성/수정/삭제" style="rounded=0;whiteSpace=wrap;html=1;" vertex="1" parent="WIyWlLk6GJQsqaUBKTNV-1">
          <mxGeometry x="870" y="870" width="120" height="50" as="geometry" />
        </mxCell>
        <mxCell id="gV6yRQY4_TlXhHt6PnbV-72" style="edgeStyle=orthogonalEdgeStyle;rounded=0;sketch=0;orthogonalLoop=1;jettySize=auto;html=1;exitX=0.5;exitY=1;exitDx=0;exitDy=0;entryX=0.5;entryY=0;entryDx=0;entryDy=0;" edge="1" parent="WIyWlLk6GJQsqaUBKTNV-1" source="gV6yRQY4_TlXhHt6PnbV-67" target="gV6yRQY4_TlXhHt6PnbV-70">
          <mxGeometry relative="1" as="geometry" />
        </mxCell>
        <mxCell id="gV6yRQY4_TlXhHt6PnbV-73" style="edgeStyle=orthogonalEdgeStyle;rounded=0;sketch=0;orthogonalLoop=1;jettySize=auto;html=1;exitX=0.5;exitY=1;exitDx=0;exitDy=0;entryX=0.5;entryY=0;entryDx=0;entryDy=0;" edge="1" parent="WIyWlLk6GJQsqaUBKTNV-1" source="gV6yRQY4_TlXhHt6PnbV-67" target="gV6yRQY4_TlXhHt6PnbV-71">
          <mxGeometry relative="1" as="geometry" />
        </mxCell>
        <mxCell id="gV6yRQY4_TlXhHt6PnbV-74" style="edgeStyle=orthogonalEdgeStyle;rounded=0;sketch=0;orthogonalLoop=1;jettySize=auto;html=1;exitX=0.5;exitY=1;exitDx=0;exitDy=0;entryX=0.5;entryY=0;entryDx=0;entryDy=0;" edge="1" parent="WIyWlLk6GJQsqaUBKTNV-1" source="gV6yRQY4_TlXhHt6PnbV-67" target="gV6yRQY4_TlXhHt6PnbV-69">
          <mxGeometry relative="1" as="geometry" />
        </mxCell>
        <mxCell id="gV6yRQY4_TlXhHt6PnbV-67" value="유저 페이지" style="rounded=0;whiteSpace=wrap;html=1;sketch=0;fillColor=#d5e8d4;strokeColor=#82b366;" vertex="1" parent="WIyWlLk6GJQsqaUBKTNV-1">
          <mxGeometry x="590" y="730" width="120" height="60" as="geometry" />
        </mxCell>
        <mxCell id="gV6yRQY4_TlXhHt6PnbV-69" value="장바구니" style="rounded=0;whiteSpace=wrap;html=1;sketch=0;" vertex="1" parent="WIyWlLk6GJQsqaUBKTNV-1">
          <mxGeometry x="460" y="900" width="120" height="60" as="geometry" />
        </mxCell>
        <mxCell id="gV6yRQY4_TlXhHt6PnbV-70" value="주문도착 확인" style="rounded=0;whiteSpace=wrap;html=1;sketch=0;" vertex="1" parent="WIyWlLk6GJQsqaUBKTNV-1">
          <mxGeometry x="590" y="900" width="120" height="60" as="geometry" />
        </mxCell>
        <mxCell id="gV6yRQY4_TlXhHt6PnbV-71" value="개인정보 변경" style="rounded=0;whiteSpace=wrap;html=1;sketch=0;" vertex="1" parent="WIyWlLk6GJQsqaUBKTNV-1">
          <mxGeometry x="730" y="900" width="120" height="60" as="geometry" />
        </mxCell>
      </root>
    </mxGraphModel>
  </diagram>
</mxfile>
